<?xml version="1.0" standalone="no"?>
<!DOCTYPE svg PUBLIC "-//W3C//DTD SVG 20010904//EN"
 "http://www.w3.org/TR/2001/REC-SVG-20010904/DTD/svg10.dtd">
<svg version="1.0" xmlns="http://www.w3.org/2000/svg"
 width="500.000000pt" height="500.000000pt" viewBox="0 0 500.000000 500.000000"
 preserveAspectRatio="xMidYMid meet">
<metadata>
Created by potrace 1.14, written by Peter Selinger 2001-2017
</metadata>
<g transform="translate(0.000000,500.000000) scale(0.100000,-0.100000)"
fill="#000000" stroke="none">
<path d="M2289 4989 c-5 -3 -22 -4 -39 -3 -17 1 -32 -2 -35 -7 -3 -4 -13 -5
-22 -2 -12 5 -14 3 -8 -8 6 -11 5 -11 -5 -2 -8 7 -22 8 -41 3 -16 -5 -32 -9
-34 -9 -3 -1 -6 -1 -7 -2 -6 -2 -74 -9 -91 -10 -9 0 -16 -3 -13 -7 2 -4 -6 -8
-17 -8 -56 -4 -87 -10 -87 -17 0 -4 -3 -6 -7 -5 -18 4 -93 -15 -93 -23 0 -6 5
-7 12 -3 7 4 8 3 4 -5 -6 -9 -11 -9 -24 1 -11 10 -16 10 -19 1 -2 -7 -11 -9
-19 -6 -8 3 -14 0 -14 -5 0 -6 -9 -9 -20 -7 -11 2 -20 0 -20 -6 0 -5 -10 -9
-23 -9 -12 0 -33 -7 -45 -16 -12 -8 -22 -12 -22 -9 0 3 -10 -1 -21 -9 -12 -8
-27 -12 -35 -9 -8 3 -16 -1 -19 -9 -3 -8 -11 -15 -18 -15 -17 0 -151 -64 -155
-75 -2 -4 -8 -6 -13 -2 -5 3 -9 0 -9 -7 0 -7 -3 -9 -7 -6 -3 4 -12 -1 -20 -11
-8 -9 -11 -11 -7 -3 8 16 -1 12 -51 -23 -16 -12 -34 -21 -38 -21 -4 0 -12 -7
-17 -15 -5 -8 -10 -11 -10 -7 0 5 -7 1 -16 -7 -8 -9 -19 -14 -24 -11 -5 3 -12
0 -16 -6 -5 -8 -3 -9 6 -4 9 5 11 4 6 -3 -4 -7 -15 -12 -25 -12 -10 0 -23 -10
-29 -22 -6 -13 -11 -18 -11 -11 -1 7 -13 1 -27 -12 -15 -14 -32 -22 -38 -18
-6 4 -5 -1 3 -10 12 -15 12 -17 -1 -12 -14 6 -34 -9 -106 -75 -55 -51 -80 -69
-85 -63 -3 2 -8 -5 -12 -16 -3 -12 -10 -21 -14 -21 -11 0 -64 -50 -54 -50 4 0
-7 -10 -24 -21 -18 -12 -33 -25 -33 -31 0 -15 -27 -38 -35 -30 -5 4 -5 -1 -2
-10 4 -11 0 -19 -14 -23 -17 -6 -18 -9 -7 -23 8 -9 8 -13 1 -9 -13 8 -45 -2
-38 -13 2 -4 -7 -17 -21 -29 -14 -12 -22 -27 -18 -33 4 -6 3 -8 -4 -4 -6 3
-13 -3 -17 -14 -4 -11 -11 -18 -16 -15 -8 6 -14 -16 -10 -38 1 -5 -3 -6 -9 -2
-6 4 -17 -9 -25 -27 -8 -18 -14 -28 -15 -23 0 6 -9 -5 -20 -23 -11 -18 -18
-38 -14 -43 3 -5 2 -9 -3 -8 -19 3 -33 -2 -33 -12 0 -5 6 -7 12 -3 9 5 9 3 -1
-9 -7 -9 -17 -14 -22 -12 -4 3 -6 -4 -4 -15 2 -11 1 -18 -4 -16 -4 3 -13 -4
-20 -16 -10 -16 -10 -19 1 -13 7 3 5 0 -4 -8 -10 -8 -15 -17 -11 -20 3 -4 1
-7 -6 -7 -8 0 -11 -8 -8 -19 4 -15 1 -18 -12 -13 -14 5 -14 4 -1 -14 8 -10 10
-16 6 -12 -12 10 -39 -29 -31 -42 3 -6 -1 -10 -11 -10 -14 0 -15 -2 -3 -17 8
-9 9 -14 2 -10 -7 4 -14 -1 -18 -13 -3 -11 -11 -20 -16 -20 -6 0 -8 -4 -5 -9
8 -12 -4 -42 -13 -36 -4 2 -8 -1 -9 -8 -2 -28 -9 -46 -22 -63 -13 -16 -13 -17
0 -10 8 4 7 1 -3 -7 -22 -18 -23 -27 -5 -38 10 -7 9 -9 -4 -9 -12 0 -16 -6
-13 -20 2 -11 0 -18 -6 -15 -8 5 -14 -15 -10 -37 0 -5 -3 -8 -8 -8 -6 0 -8 -9
-6 -20 2 -11 -1 -20 -7 -20 -6 0 -9 -3 -6 -6 4 -3 0 -17 -8 -32 -10 -20 -11
-28 -1 -34 9 -6 9 -8 -2 -8 -8 0 -11 -7 -8 -20 3 -13 1 -18 -6 -13 -6 4 -8 0
-4 -10 4 -10 2 -17 -4 -17 -6 0 -9 -7 -5 -15 3 -8 1 -15 -4 -15 -5 0 -7 -6 -4
-14 3 -8 0 -24 -6 -36 -9 -16 -8 -25 2 -38 9 -11 10 -14 0 -8 -11 7 -17 -5
-13 -28 1 -4 -4 -14 -10 -22 -6 -8 -8 -14 -4 -14 4 0 1 -8 -6 -17 -12 -14 -12
-15 0 -9 10 7 11 3 6 -15 -5 -13 -8 -37 -9 -54 -1 -16 -8 -36 -16 -43 -8 -8
-9 -11 -3 -7 8 4 13 0 13 -10 0 -9 -4 -14 -9 -10 -13 8 -5 -33 10 -51 9 -12 9
-13 -2 -9 -11 4 -14 -2 -13 -22 1 -16 3 -30 4 -33 1 -3 1 -9 0 -15 -7 -30 -4
-101 5 -107 6 -5 6 -8 -2 -8 -7 0 -13 -5 -13 -11 0 -5 6 -7 13 -3 9 6 9 4 1
-7 -11 -16 -12 -58 -1 -76 4 -6 3 -14 -2 -18 -10 -6 -8 -26 5 -59 5 -13 4 -17
-3 -13 -15 10 -10 -17 6 -37 12 -14 11 -16 -5 -9 -16 6 -17 4 -6 -9 7 -8 9
-24 5 -33 -5 -14 -3 -16 7 -10 10 6 12 4 7 -8 -3 -10 -2 -17 2 -17 5 0 7 -9 4
-20 -3 -11 0 -26 6 -34 9 -10 9 -16 1 -21 -7 -4 -8 -11 -2 -18 5 -7 8 -22 7
-35 -1 -13 2 -25 7 -28 4 -3 6 -10 3 -15 -4 -5 -1 -9 6 -9 8 0 8 -4 -1 -15 -9
-10 -9 -15 -1 -15 6 0 11 -10 11 -23 0 -13 5 -28 12 -35 9 -9 9 -12 -2 -12
-12 -1 -11 -3 2 -10 10 -6 14 -18 11 -30 -3 -13 0 -20 8 -20 11 0 11 -2 -1
-10 -11 -7 -11 -10 -2 -10 7 0 11 -4 7 -9 -3 -6 3 -14 12 -20 17 -10 17 -10
-2 -11 -17 -1 -18 -2 -5 -13 8 -7 16 -23 18 -37 2 -14 12 -40 23 -58 10 -18
15 -31 10 -28 -5 4 -4 -7 2 -23 6 -17 16 -27 21 -23 6 3 5 -2 -3 -11 -9 -11
-10 -17 -2 -17 6 0 11 -8 11 -18 0 -10 9 -28 20 -40 13 -14 16 -22 8 -22 -9 0
-9 -3 2 -10 8 -5 11 -10 6 -10 -6 0 -1 -7 10 -15 10 -8 15 -15 10 -15 -6 0 -1
-7 10 -16 10 -8 13 -13 7 -9 -7 3 -13 1 -13 -4 0 -6 5 -11 10 -11 6 0 10 -7
10 -15 0 -8 5 -15 11 -15 6 0 9 -6 6 -14 -3 -8 1 -17 9 -20 8 -3 14 -12 14
-21 0 -8 6 -15 13 -15 8 0 7 -4 -3 -10 -11 -7 -11 -10 -2 -10 7 0 10 -4 7 -10
-3 -5 1 -10 9 -10 10 0 16 -9 16 -25 0 -14 9 -30 19 -37 10 -6 17 -18 14 -25
-3 -7 2 -13 12 -13 9 0 13 -5 10 -10 -3 -6 1 -13 9 -16 9 -3 14 -10 11 -14 -2
-4 4 -18 15 -30 11 -12 17 -27 14 -31 -3 -5 2 -9 10 -9 8 0 20 -10 27 -21 9
-17 8 -20 -2 -14 -8 5 -10 4 -5 -3 4 -7 14 -12 22 -12 8 0 12 -4 9 -10 -3 -5
-2 -10 4 -10 5 0 13 -9 16 -21 5 -13 12 -18 22 -14 13 4 14 3 3 -10 -10 -12
-9 -15 5 -15 10 0 16 -3 12 -6 -8 -8 18 -34 33 -34 6 0 8 -5 5 -11 -8 -11 34
-56 48 -51 5 1 6 -2 2 -8 -3 -5 -1 -10 5 -10 6 0 8 -4 5 -10 -3 -5 -1 -10 4
-10 12 0 71 -59 71 -71 0 -4 9 -11 20 -14 11 -4 18 -11 15 -16 -4 -5 0 -9 8
-9 8 0 27 -16 41 -35 15 -19 33 -35 40 -35 7 0 22 -11 34 -25 13 -14 28 -23
34 -19 7 4 8 3 4 -4 -8 -13 28 -35 39 -24 3 4 6 2 5 -3 -1 -6 -2 -17 -1 -25 1
-13 2 -13 11 0 8 13 10 13 10 -1 0 -9 13 -22 30 -29 16 -7 28 -16 25 -20 -3
-4 2 -11 11 -14 10 -4 13 -2 9 7 -4 6 2 2 13 -10 11 -12 22 -19 26 -16 3 4 6
1 6 -5 0 -7 7 -12 15 -12 8 0 15 -4 15 -10 0 -5 7 -10 16 -10 8 0 12 -4 9 -10
-5 -9 15 -15 38 -11 4 0 7 -4 7 -9 0 -6 7 -10 16 -10 8 0 13 -4 10 -9 -7 -11
22 -23 35 -15 5 3 8 0 7 -8 -2 -7 3 -12 10 -11 6 2 12 -2 12 -8 0 -5 4 -8 9
-4 5 3 12 1 16 -5 4 -6 11 -8 16 -5 5 4 9 -2 9 -11 0 -10 3 -15 6 -11 4 3 25
-4 48 -15 22 -12 44 -21 49 -20 4 1 7 -3 7 -9 0 -5 4 -8 9 -5 4 3 17 -1 27 -9
10 -8 27 -15 37 -15 9 0 17 -5 17 -11 0 -5 4 -8 9 -4 5 3 13 0 16 -6 4 -5 13
-8 20 -5 7 2 16 -2 19 -11 6 -14 8 -14 21 3 15 19 15 19 8 0 -5 -16 -2 -18 20
-14 15 3 24 1 21 -3 -5 -8 3 -11 22 -8 4 0 11 -5 15 -13 7 -10 9 -10 9 2 1 12
3 11 11 -3 5 -9 15 -17 20 -17 6 0 7 5 3 11 -3 6 5 3 19 -6 15 -9 31 -14 37
-10 5 3 13 -1 16 -10 6 -14 8 -14 21 2 8 10 12 13 9 6 -8 -16 3 -22 47 -25 21
-1 37 -6 37 -11 0 -5 9 -7 19 -4 11 3 29 -2 40 -9 14 -10 22 -11 27 -3 4 8 9
7 15 -2 7 -11 9 -11 9 1 0 11 2 12 8 3 4 -7 29 -13 55 -15 26 -2 47 -7 47 -12
0 -5 7 -3 15 4 9 8 15 8 15 2 0 -7 25 -10 64 -9 35 1 62 -1 61 -4 -2 -3 11 -6
30 -6 22 0 32 4 28 11 -5 8 -2 7 8 0 14 -11 294 -12 305 -1 3 3 19 1 36 -3 23
-7 27 -6 20 3 -8 9 -4 12 14 13 13 1 24 -3 24 -8 0 -7 4 -7 13 -1 6 6 20 9 30
8 9 -2 17 1 17 6 0 5 12 6 26 3 16 -4 25 -3 21 2 -3 6 3 10 14 10 10 0 19 -5
19 -10 0 -5 7 -1 16 10 8 10 13 13 9 7 -3 -7 -1 -13 4 -13 6 0 11 5 11 11 0 5
5 7 10 4 6 -3 16 -3 23 2 13 8 18 9 55 11 16 2 21 6 16 15 -6 9 -4 9 8 -1 12
-9 18 -10 23 -2 4 6 13 9 21 6 8 -3 14 -1 14 5 0 6 5 7 10 4 6 -3 10 0 10 7 0
9 3 9 10 -2 6 -9 10 -10 10 -3 0 6 9 10 20 8 11 -2 19 -1 19 3 -3 20 2 25 11
12 6 -9 10 -11 10 -3 0 7 7 10 15 7 10 -4 15 0 16 12 0 12 3 14 6 6 4 -10 8
-10 21 0 13 11 15 11 8 -2 -4 -8 1 -4 12 10 12 14 24 21 28 17 4 -4 1 -7 -6
-7 -7 0 -11 -2 -8 -5 9 -9 88 26 82 36 -3 5 2 6 10 3 10 -4 16 -1 16 7 0 12 2
12 9 0 7 -11 12 -10 28 6 11 11 25 17 31 15 7 -2 12 1 12 8 0 6 4 9 9 5 5 -3
12 -1 16 5 4 6 12 7 18 3 9 -5 8 -2 0 8 -11 13 -9 15 10 14 26 -3 60 13 53 23
-2 4 4 9 15 10 47 4 49 5 38 18 -8 10 -5 11 12 7 18 -5 21 -3 16 10 -4 11 -2
14 9 10 8 -3 30 5 49 18 28 19 32 26 22 39 -7 9 -4 8 9 -3 19 -16 22 -16 28
-2 3 9 11 13 16 10 6 -4 9 -3 8 2 -2 4 2 10 7 12 6 3 18 14 28 25 10 12 15 14
11 6 -5 -10 1 -8 16 5 14 11 30 25 37 30 7 6 19 16 28 23 8 7 15 10 15 6 0 -4
8 3 19 14 10 12 21 19 25 15 5 -6 10 11 7 29 0 4 6 5 14 2 8 -3 19 3 27 15 7
12 17 21 23 21 6 0 23 14 38 31 15 17 27 27 27 23 1 -5 8 5 16 21 8 17 12 21
9 10 -4 -15 0 -14 16 8 11 15 26 24 31 21 7 -4 8 -2 4 4 -3 6 1 17 9 24 38 32
75 74 75 86 0 7 4 11 9 7 5 -3 12 4 16 15 4 11 11 17 17 14 8 -5 9 -1 5 10 -4
10 -3 15 3 11 6 -3 10 1 10 9 0 9 5 15 12 13 7 -1 12 4 13 11 0 7 7 17 15 22
8 5 15 14 15 19 0 5 10 18 23 29 15 13 20 26 16 38 -5 16 -4 16 5 4 6 -8 11
-12 12 -7 1 4 2 10 3 15 0 4 11 18 24 32 12 13 20 30 17 38 -3 8 0 10 7 6 8
-5 9 -2 5 10 -4 9 -3 15 2 12 12 -8 34 21 26 34 -4 6 -3 9 2 8 4 -2 9 1 10 6
1 5 6 12 11 15 16 10 52 84 45 94 -3 6 -1 7 5 3 12 -7 26 29 17 44 -4 6 1 7
12 3 10 -3 15 -3 11 2 -4 4 -2 15 5 23 10 13 9 15 -3 8 -8 -4 -6 0 4 8 11 9
16 16 11 16 -5 0 2 10 14 21 16 15 19 24 11 29 -8 5 -7 9 5 14 9 3 15 13 12
20 -3 8 1 17 9 20 9 3 13 10 9 15 -3 5 -1 12 5 16 6 4 8 11 5 16 -4 5 -1 9 6
9 8 0 7 5 -2 17 -10 12 -10 14 -1 9 7 -4 14 0 18 11 3 10 10 28 16 40 6 11 7
27 3 34 -5 7 -4 10 2 6 6 -4 14 0 17 9 4 10 2 13 -7 8 -8 -6 -8 -3 1 9 8 9 11
20 8 26 -3 5 1 12 10 15 14 5 14 9 3 23 -10 12 -10 14 -1 9 7 -4 12 -1 13 8 2
19 4 26 13 48 4 9 5 22 1 28 -3 5 -1 10 5 10 6 0 8 5 4 11 -3 6 -1 15 7 19 10
7 10 12 -2 26 -9 11 -9 15 -1 10 6 -4 13 -4 13 1 1 4 4 19 6 33 2 14 4 37 4
53 0 15 4 27 10 27 6 0 7 5 4 10 -4 6 -1 18 7 27 11 14 11 16 -2 8 -12 -7 -13
-6 -3 6 10 12 10 18 0 29 -7 8 -8 10 -1 7 7 -4 14 3 16 18 3 13 1 22 -3 19 -5
-3 -9 0 -9 5 0 6 5 11 11 11 7 0 9 10 7 25 -3 13 -1 22 3 19 5 -3 9 4 9 15 0
10 -6 22 -12 24 -9 4 -8 6 2 6 11 1 15 14 14 54 0 29 -4 58 -7 65 -4 6 -3 13
2 16 10 7 7 78 -4 96 -5 9 -4 11 3 6 7 -4 12 -1 12 9 0 10 -5 14 -12 9 -10 -5
-10 -4 -1 6 9 9 9 19 2 33 -6 11 -7 17 -1 13 10 -6 8 36 -3 53 -3 6 -1 11 4
11 6 0 11 5 11 11 0 5 -3 8 -7 6 -5 -3 -8 12 -9 34 -1 22 3 36 8 32 6 -3 4 5
-3 18 -7 13 -12 28 -11 32 1 4 -3 17 -9 29 -8 15 -8 18 0 14 6 -4 11 -2 11 3
0 6 -4 11 -8 11 -5 0 -7 14 -6 30 1 17 -2 30 -7 30 -5 0 -9 5 -9 11 0 5 6 7
13 3 9 -6 9 -5 0 7 -7 9 -14 32 -15 52 -2 20 -5 37 -8 37 -3 0 -7 9 -8 20 -4
42 -6 50 -12 50 -4 0 -6 16 -5 34 1 19 -2 33 -6 31 -4 -3 -9 4 -12 15 -3 12
-1 18 5 14 5 -4 4 4 -3 17 -21 37 -38 92 -33 101 3 4 1 8 -4 8 -6 0 -13 7 -16
16 -3 8 -2 12 4 9 6 -3 7 1 4 9 -3 9 -9 14 -14 11 -4 -2 -6 7 -4 21 2 22 0 23
-13 12 -15 -12 -15 -11 -4 10 7 14 8 22 1 22 -5 0 -10 8 -10 18 0 9 -7 26 -15
36 -8 10 -12 23 -9 27 3 5 0 9 -7 9 -7 0 -9 3 -6 7 4 3 -1 12 -11 20 -9 8 -11
12 -4 8 10 -5 10 -1 0 19 -6 14 -15 26 -20 26 -5 0 -6 5 -3 10 3 6 1 10 -5 10
-6 0 -8 5 -5 10 3 6 1 10 -5 10 -6 0 -9 4 -5 9 3 5 -2 16 -10 24 -8 9 -15 23
-15 31 0 9 -5 16 -11 16 -6 0 -9 7 -5 15 3 8 0 14 -7 12 -7 -1 -11 6 -9 16 2
10 -3 17 -13 17 -8 0 -15 9 -15 20 0 11 -5 20 -12 20 -6 0 -8 3 -5 6 10 11
-13 46 -27 41 -7 -3 -13 1 -13 9 0 7 5 11 11 8 6 -3 3 1 -6 9 -10 8 -15 17
-11 20 3 4 -1 7 -11 7 -9 0 -14 5 -11 10 3 6 1 10 -5 10 -6 0 -9 4 -5 9 3 5 1
12 -5 16 -6 4 -8 11 -5 16 3 5 -1 6 -9 3 -11 -4 -16 0 -16 10 0 9 -5 16 -11
16 -5 0 -7 5 -4 10 6 10 -9 15 -30 10 -5 -1 -5 4 2 11 9 9 3 20 -28 50 -21 20
-39 43 -39 49 0 7 -7 10 -16 6 -8 -3 -12 -2 -9 4 3 6 1 10 -5 10 -6 0 -8 5 -5
10 3 6 1 10 -6 10 -7 0 -9 3 -6 7 8 7 -34 39 -46 35 -5 -1 -6 2 -3 7 7 11 -47
71 -64 71 -6 0 -9 4 -5 9 3 5 -4 12 -15 16 -11 3 -20 13 -20 21 0 8 -4 13 -9
9 -5 -3 -16 4 -24 15 -7 11 -16 17 -19 14 -4 -3 -9 4 -13 15 -3 11 -19 25 -35
32 -16 8 -26 17 -24 21 5 7 -10 12 -28 9 -4 0 -10 9 -13 21 -5 15 -9 17 -15 8
-6 -9 -10 -7 -15 9 -3 11 -13 21 -21 21 -8 0 -14 4 -14 9 0 5 -13 14 -30 21
-16 7 -32 21 -36 32 -4 15 -9 17 -20 7 -11 -9 -14 -8 -14 4 0 17 -27 30 -42
20 -6 -3 -8 -1 -5 4 4 6 -1 17 -10 24 -11 10 -14 10 -9 2 5 -9 2 -11 -8 -7 -9
3 -16 13 -16 21 0 8 -4 11 -10 8 -5 -3 -10 -3 -10 2 0 12 -51 33 -63 26 -6 -3
-7 -2 -4 4 6 9 -70 50 -85 45 -5 -1 -8 3 -8 8 0 6 -9 10 -20 10 -11 0 -20 5
-20 11 0 6 -7 8 -16 5 -8 -3 -13 -2 -10 3 3 5 -1 11 -8 14 -8 3 -17 1 -20 -6
-2 -7 -5 -3 -5 7 -1 11 -4 16 -8 13 -3 -4 -15 1 -26 10 -15 13 -18 14 -12 3 8
-13 6 -13 -8 -2 -9 8 -21 11 -27 7 -5 -3 -10 -2 -10 4 0 11 -66 36 -92 35 -10
-1 -15 3 -12 7 3 5 -6 9 -20 9 -14 0 -26 5 -26 11 0 6 -9 9 -20 6 -11 -3 -20
-1 -20 5 0 6 -7 8 -15 4 -8 -3 -15 -1 -15 3 0 5 -10 7 -22 3 -13 -3 -19 -1
-15 5 4 6 -3 10 -16 9 -12 -1 -25 3 -29 9 -5 6 -8 4 -8 -5 0 -12 -2 -12 -8 -2
-5 7 -23 14 -40 15 -18 1 -32 4 -32 7 0 3 -17 7 -37 8 -21 2 -41 8 -45 15 -6
9 -8 8 -8 -3 0 -13 -1 -13 -10 0 -5 8 -10 11 -10 7 0 -4 -10 -3 -21 4 -15 8
-19 8 -15 0 4 -6 2 -11 -3 -11 -6 0 -11 6 -11 13 0 8 -4 7 -10 -3 -8 -12 -10
-12 -10 -1 0 11 -3 11 -16 1 -8 -8 -14 -9 -13 -4 4 21 -2 26 -16 14 -12 -10
-15 -10 -15 0 0 9 -4 9 -17 -1 -9 -8 -14 -9 -10 -3 4 7 0 14 -8 18 -8 3 -15 0
-15 -7 0 -8 -3 -8 -8 -2 -10 14 -305 14 -314 0 -5 -7 -8 -6 -8 1 0 11 -84 14
-101 3z"/>
</g>
</svg>
